<?xml version="1.0" encoding="UTF-8" standalone="no"?>
<!-- Created with Inkscape (http://www.inkscape.org/) -->

<svg
   width="210mm"
   height="297mm"
   viewBox="0 0 210 297"
   version="1.1"
   id="svg1"
   xml:space="preserve"
   xmlns:xlink="http://www.w3.org/1999/xlink"
   xmlns="http://www.w3.org/2000/svg"
   xmlns:svg="http://www.w3.org/2000/svg"><defs
     id="defs1"><color-profile
       name="SMPTE-RP-431-2-2007-DCI-P3"
       xlink:href="file:///System/Library/ColorSync/Profiles/DCI(P3)%20RGB.icc"
       id="color-profile1" /></defs><g
     id="layer1"><g
       id="g1"
       transform="translate(-2.3425339,82.867136)"><path
         style="fill:#6bacc2;stroke-width:3.07756"
         d="m 13.869341,151.5402 c -0.506814,-0.58612 -0.92148,-3.27749 -0.92148,-5.98079 0,-6.48586 0.815853,-7.31276 17.225581,-17.4591 11.238248,-6.94872 13.862778,-8.95621 12.871872,-9.84561 -0.104164,-0.0933 -6.663101,-0.38899 -14.575495,-0.65673 l -14.386192,-0.48689 -0.245536,-2.97303 c -0.147663,-1.78801 0.154248,-3.26609 0.757158,-3.70824 0.551458,-0.40433 8.729793,-0.74122 18.174132,-0.74857 19.909891,-0.0165 19.55118,-0.15323 19.55118,7.50096 0,3.6824 -0.345355,5.10781 -1.523002,6.28614 -0.837628,0.83813 -7.566948,5.33686 -14.954068,9.99719 -7.387093,4.66033 -13.431087,8.99496 -13.431087,9.6325 0,0.90717 3.209785,1.25435 14.764772,1.59699 l 14.764804,0.43784 v 3.50271 3.50274 l -18.57564,0.23367 c -13.812241,0.17376 -18.811898,-0.0394 -19.497085,-0.83192 z m 62.607296,-1.3242 c -0.0404,-1.35087 -0.01714,-3.90702 0.05411,-5.68036 0.16828,-4.251 -0.268138,-5.10333 -10.352457,-20.21677 -4.746048,-7.1131 -8.422612,-13.31946 -8.17011,-13.79194 0.252398,-0.47253 1.958972,-0.85912 3.792178,-0.85912 3.922239,0 4.216255,0.30846 11.896104,12.47845 3.05757,4.84522 5.929256,8.53786 6.639716,8.53786 0.717348,0 3.651953,-3.83156 6.872412,-8.97295 3.091254,-4.93509 6.216753,-9.66375 6.945515,-10.50814 1.419745,-1.64493 7.699955,-2.1906 8.476995,-0.73654 0.23466,0.43926 -2.56337,5.26645 -6.218075,10.72709 -11.880383,17.75109 -11.766752,17.52255 -12.244237,24.61823 l -0.425736,6.3265 -3.596545,0.26677 c -3.47613,0.25783 -3.59902,0.18467 -3.66993,-2.1892 z m 32.971753,1.24658 c -0.20319,-0.61245 -0.27758,-10.16829 -0.16541,-21.23523 l 0.20404,-20.12167 h 16.6577 c 14.49687,0 16.97526,0.20056 19.10568,1.54726 3.44133,2.17506 4.74513,5.61949 4.74513,12.53568 0,6.58053 -1.6349,10.73405 -4.90301,12.45613 -1.05131,0.55401 -1.90846,1.3113 -1.90474,1.68282 0.003,0.37155 1.70737,3.20945 3.78584,6.30645 2.07848,3.09703 3.77907,6.15097 3.77907,6.78654 0,1.2604 -6.54115,1.65803 -7.98559,0.48543 -0.43586,-0.35386 -2.46433,-3.20472 -4.50768,-6.33529 -2.04335,-3.13054 -4.07182,-5.98141 -4.50769,-6.33529 -1.28747,-1.04515 -15.40282,-0.79195 -15.9792,0.28662 -0.28131,0.52625 -0.58399,3.21362 -0.67285,5.97195 -0.0887,2.75833 -0.41006,5.48023 -0.71381,6.04864 -0.74787,1.39948 -6.46824,1.33349 -6.93728,-0.0801 z m 30.64289,-21.43519 c 2.37574,-2.2456 2.85279,-7.16213 0.95785,-9.87165 -1.45919,-2.08647 -1.90107,-2.1782 -11.61798,-2.41149 -5.55563,-0.13337 -10.52442,0.0851 -11.04177,0.48536 -1.32886,1.02828 -1.99555,8.05132 -1.03681,10.92208 l 0.80421,2.40813 h 10.15662 c 8.55059,0 10.41301,-0.24227 11.77788,-1.53243 z m 24.66883,21.26777 c -6.012,-2.52959 -7.93924,-7.44383 -7.94606,-20.26144 -0.006,-9.28925 0.85007,-12.86271 4.00399,-16.73552 3.18837,-3.91504 7.93523,-4.88414 22.04285,-4.50013 12.51861,0.34073 14.85186,1.14733 18.16417,6.27912 1.39785,2.16569 1.62381,3.90592 1.84056,14.17552 0.28561,13.53272 -0.49981,16.62186 -5.05999,19.9015 -2.56457,1.84441 -3.71829,1.99927 -16.3878,2.19969 -10.41324,0.16483 -14.34367,-0.0851 -16.65772,-1.05874 z m 28.16231,-8.71352 c 2.062,-2.05129 2.12405,-2.36653 2.11148,-10.72709 -0.009,-5.24213 -0.38315,-9.37283 -0.95879,-10.55312 -1.46942,-3.01288 -5.71297,-3.98035 -15.92175,-3.62995 -12.03555,0.41307 -12.52057,0.87176 -12.90207,12.20268 -0.29232,8.68185 0.54085,12.31585 3.15928,13.77992 0.90734,0.50734 6.31572,0.94907 12.01855,0.98167 9.90598,0.0566 10.4637,-0.035 12.4933,-2.05411 z M 102.6723,90.695058 C 91.267246,83.906914 76.72653,69.061111 72.59472,59.986463 l -2.062408,-4.529598 6.983996,-9.373646 c 3.841161,-5.155488 9.085675,-12.065722 11.654392,-15.356018 2.786977,-3.569831 4.883313,-7.133735 5.19833,-8.837349 0.58445,-3.160956 1.642715,-5.04415 2.834585,-5.04415 0.42999,0 0.20976,0.731136 -0.48956,1.624711 -1.622808,2.073865 -0.84261,4.691505 1.29127,4.332441 0.95603,-0.160849 1.75012,-1.123165 2.018185,-2.445605 0.30066,-1.48329 0.62881,-1.830737 1.0264,-1.08676 1.11453,2.085647 -0.30537,4.523872 -3.155555,5.418539 -2.29112,0.719188 -4.292163,2.94596 -11.122596,12.377326 -4.580835,6.325153 -8.956978,12.639285 -9.724694,14.031361 -1.383595,2.508785 -1.378064,2.566143 0.630188,6.529324 3.310207,6.532501 11.659868,16.072265 18.884352,21.57596 8.046955,6.130241 9.791045,6.303899 10.125265,1.008155 0.2275,-3.605251 0.20061,-3.64563 -5.16335,-7.769748 -6.368255,-4.896275 -9.830151,-8.158244 -9.830151,-9.262477 0,-1.500867 1.379555,-0.796766 5.096636,2.60132 4.511615,4.124391 8.320245,6.488314 9.311815,5.779585 0.40419,-0.288926 0.73492,-2.078296 0.73492,-3.976347 v -3.451043 h 4.64291 c 3.37533,0 5.33606,-0.495426 7.18165,-1.814591 3.94842,-2.822213 7.29402,-0.387033 5.99108,4.360742 -0.70668,2.575039 -2.62075,2.916066 -5.46687,0.973996 -2.87373,-1.960908 -7.76289,-2.343768 -9.16867,-0.717965 -0.62196,0.719323 -0.9086,5.001086 -0.9086,13.573034 0,14.334961 0.14534,14.104611 -6.43594,10.187398 z m 21.20071,-25.68695 c 0,-1.604861 -0.45561,-2.264001 -1.707,-2.469536 -1.86044,-0.305483 -2.9171,1.572386 -2.16322,3.844495 0.2736,0.824704 1.13932,1.262733 2.16322,1.094603 1.25139,-0.20552 1.707,-0.864676 1.707,-2.469562 z m -9.32099,21.284106 c 0.20862,-2.872481 0.7494,-3.632875 4.82621,-6.786515 6.48212,-5.014328 11.50052,-10.284824 15.6121,-16.396377 3.30739,-4.916197 3.92274,-7.521726 1.86284,-7.887244 -0.476,-0.0844 -11.42794,-0.183025 -24.33768,-0.218769 L 89.043263,54.938099 88.803468,52.526385 C 88.60743,50.554391 89.806059,48.478871 95.378274,41.142552 99.126345,36.207853 105.62571,27.648349 109.82122,22.121418 114.01679,16.594489 117.3345,11.668791 117.19408,11.175421 116.80374,9.8046598 105.94601,9.3302198 86.351416,9.8276948 l -17.751603,0.4507092 -0.14847,7.443254 c -0.08183,4.093817 -0.166834,7.935866 -0.189149,8.537892 -0.05902,1.582116 -2.703941,1.345112 -3.923132,-0.351486 -0.802613,-1.116876 -1.03918,-5.337518 -1.03918,-18.5382202 V -9.7222793 L 69.73581,-12.58275 c 6.764752,-3.006592 24.766093,-10.534938 33.60013,-14.051847 l 5.20632,-2.072706 12.58713,5.399508 c 6.92293,2.969723 16.84287,7.2178 22.0443,9.440136 6.39909,2.734076 9.53599,4.5138774 9.70085,5.5040277 0.13535,0.8128528 -1.54428,3.7674167 -3.77839,6.646422 -2.21214,2.8507075 -6.57753,8.6526031 -9.70087,12.8931023 -3.1233,4.2405 -8.24112,10.923493 -11.37289,14.851097 -4.43203,5.558239 -5.85856,8.000966 -6.43592,11.020632 -0.67373,3.52356 -0.96714,3.904733 -3.19715,4.153521 -1.98847,0.221746 -2.61521,-0.131731 -3.29586,-1.859498 -1.1633,-2.952745 0.23751,-5.857731 2.82487,-5.857731 2.23855,0 3.42002,-1.337996 14.66243,-16.605248 4.37266,-5.938055 9.39837,-12.5826902 11.16827,-14.7658732 4.07671,-5.0286946 4.16999,-7.2922016 0.37858,-9.1890335 -7.22604,-3.6151723 -32.31416,-13.7888273 -33.41107,-13.5487133 -1.83031,0.400634 -2.06168,6.087487 -0.31966,7.857525 0.74898,0.761056 4.93938,2.9081971 9.31204,4.7715008 5.38548,2.2948509 7.37748,3.481562 6.17476,3.6784856 -0.97655,0.159857 -2.68017,-0.1055717 -3.78586,-0.59031 -1.10568,-0.4845342 -4.36865,-1.9356203 -7.25105,-3.224566 -6.13522,-2.7435744 -7.9624,-2.5934154 -16.998205,1.3971048 -3.355984,1.4820971 -6.88037,2.5651827 -7.831963,2.4068499 -1.14895,-0.1912975 0.68619,-1.2900391 5.462925,-3.2710673 11.401863,-4.7286738 11.480173,-4.7922188 11.209773,-9.0966608 -0.22521,-3.586808 -0.29395,-3.671932 -2.88091,-3.573966 -1.45756,0.05526 -7.590625,2.355384 -13.629032,5.111534 -6.038418,2.756151 -12.682563,5.6014966 -14.764798,6.3229692 -5.929583,2.0546012 -7.193091,3.3083007 -7.193091,7.1373106 0,1.8190866 0.408888,3.780291 0.908599,4.358223 0.674223,0.779756 8.194244,1.050817 29.150987,1.050817 h 28.242385 v 2.748835 c 0,2.104347 -1.02081,4.0801472 -4.35373,8.4267532 -2.39452,3.122827 -6.35378,8.486293 -8.7983,11.918773 -2.44456,3.432513 -4.65927,6.437946 -4.92161,6.678757 -2.02002,1.854236 -9.184415,12.376234 -9.184415,13.488708 0,1.632391 -0.44084,1.601115 24.890605,1.766696 20.59541,0.134705 18.6838,1.106784 21.3965,-10.881162 0.92587,-4.091498 1.75301,-7.556809 1.83819,-7.700646 0.0849,-0.14397 1.04678,-0.0026 2.13706,0.313756 2.38579,0.692511 2.5241,2.530564 0.77719,10.327388 -3.38769,15.119609 -10.31875,27.548594 -21.14509,37.917884 -4.46179,4.273437 -13.07518,10.81084 -14.24386,10.81084 -0.32929,0 -0.49291,-1.455723 -0.36365,-3.23496 z m 5.15659,-47.116648 c 0.752,-1.047938 0.752,-1.579104 0,-2.627041 -1.89215,-2.636739 -4.5892,-0.619337 -3.51204,2.627041 0.23982,0.722432 0.9159,1.313504 1.50264,1.313504 0.58674,0 1.49096,-0.591072 2.0094,-1.313504 z m -52.572634,7.252486 c -1.642433,-4.507422 -1.495484,-5.813613 0.789555,-7.0177 1.696125,-0.893772 2.124897,-0.805438 3.028665,0.623969 1.521614,2.406653 1.302519,4.402475 -0.789554,7.192451 l -1.842329,2.456957 z m 62.288264,-8.102241 c -1.035,-2.627139 -0.0258,-4.379305 3.51087,-6.087718 1.30249,-0.629366 3.71467,-2.970948 5.36046,-5.203477 l 2.99233,-4.059163 h 5.00876 c 3.94158,0 5.43943,-0.391731 7.02997,-1.838681 1.38359,-1.258695 2.60642,-1.668828 3.87642,-1.300199 2.18405,0.633965 3.27455,4.258074 1.87015,6.21514 -1.20859,1.684186 -4.83733,1.677369 -6.04919,-0.0099 -0.64576,-0.899895 -2.3699,-1.313536 -5.47499,-1.313536 -4.43674,0 -4.6024,0.08771 -7.84947,4.159478 -1.82442,2.287734 -3.32074,4.95843 -3.32518,5.934911 -0.0229,5.067186 -5.28852,7.722293 -6.95013,3.504597 z m 4.95842,-0.94398 c 0.52458,-1.581024 -1.53427,-3.962124 -2.90131,-3.355431 -1.62712,0.722101 -1.98668,2.768793 -0.73974,4.210912 1.24695,1.442116 3.01668,1.026323 3.64105,-0.855481 z m 23.86187,-12.106166 c 1.17091,-1.631661 0.25155,-4.051551 -1.53945,-4.051551 -1.62652,0 -2.55742,1.937871 -1.89291,3.940544 0.54478,1.641923 2.29318,1.698452 3.43236,0.110869 z M 57.186993,37.191855 c -1.479593,-1.171683 -1.739011,-3.481495 -0.60191,-5.359063 1.305097,-2.154885 3.905305,-2.400196 6.001879,-0.566217 0.922223,0.806696 3.253396,1.296062 6.257467,1.313538 4.643298,0.02647 4.871681,-0.07909 7.571687,-3.515552 1.5312,-1.948859 3.304049,-5.199803 3.939664,-7.224353 0.914352,-2.912302 1.575696,-3.737664 3.167029,-3.952394 1.420963,-0.191629 2.260886,0.267752 2.861401,1.565534 1.251553,2.704552 0.270132,5.037962 -2.575687,6.124191 -1.381793,0.527394 -4.114578,2.916106 -6.072925,5.308194 l -3.560576,4.349254 h -5.155739 c -3.659153,0 -5.42932,0.381273 -6.09831,1.313538 -0.985411,1.373177 -4.337445,1.749287 -5.73398,0.64333 z m 4.083021,-3.05147 c -0.158829,-1.293216 -0.762336,-1.970273 -1.756303,-1.970273 -0.993938,0 -1.597489,0.677057 -1.756288,1.970273 -0.198601,1.616238 0.117016,1.970272 1.756288,1.970272 1.639167,0 1.954768,-0.354034 1.756303,-1.970272 z M 85.556389,23.524293 c 1.270464,-1.770435 0.190591,-4.051551 -1.918055,-4.051551 -2.386492,0 -3.239906,2.500977 -1.387889,4.067206 1.75866,1.487194 2.229061,1.484977 3.305944,-0.01654 z M 148.20106,14.87543 c -0.85042,-3.670047 -0.48303,-5.7685032 1.483,-8.4707062 1.0781,-1.481833 2.27066,-2.694227 2.65008,-2.694227 0.37943,0 0.68987,2.303257 0.68987,5.118353 0,3.8464842 -0.34407,5.4785102 -1.38466,6.5676192 -1.88528,1.973185 -2.89582,1.820047 -3.43829,-0.521039 z"
         id="path2" /></g></g></svg>
